# xmcd
#
# Track frame offsets:
#	150
#	17156
#	31523
#	51172
#	66294
#	82357
#	97321
#	111345
#	126251
#	140554
#	156020
#	168939
#
# Disc length: 2464 seconds
#
# Revision: 0
# Processed by: cddbd v1.5.2PL0 Copyright (c) Steve Scherf et al.
# Submitted via: audiograbber 1.83.01
#
DISCID=a8099e0c
DTITLE=Kari Tapio - Juna Kulkee
DYEAR=2003
DGENRE=Pop
TTITLE0=Juna Kulkee
TTITLE1=Alusta Mä Kaiken Alkaisin
TTITLE2=Mississippi
TTITLE3=En Odota Huomiseen
TTITLE4=Atlantis
TTITLE5=Eksynyt
TTITLE6=Romanialainen Kitara
TTITLE7=Kesä Kuuskytviis
TTITLE8=Voit Löytää Helpomman
TTITLE9=Pieni Sana
TTITLE10=Tulta Isken Missä Taula On
TTITLE11=Jos Rakas Sulle Oisin
EXTD=TR.
EXTT0=
EXTT1=
EXTT2=
EXTT3=
EXTT4=
EXTT5=
EXTT6=
EXTT7=
EXTT8=
EXTT9=
EXTT10=
EXTT11=
PLAYORDER=
